<svg width="66" height="14" viewBox="0 0 66 14" fill="none" xmlns="http://www.w3.org/2000/svg">
<path d="M7.2 13.162C5.94 13.162 4.836 12.892 3.888 12.352C2.952 11.812 2.232 11.05 1.728 10.066C1.224 9.07 0.972 7.906 0.972 6.574C0.972 5.254 1.224 4.102 1.728 3.118C2.232 2.122 2.952 1.36 3.888 0.831999C4.836 0.291999 5.94 0.0219997 7.2 0.0219997C8.064 0.0219997 8.874 0.16 9.63 0.436C10.398 0.699999 11.034 1.072 11.538 1.552L10.782 3.244C10.206 2.776 9.63 2.44 9.054 2.236C8.49 2.02 7.884 1.912 7.236 1.912C6 1.912 5.04 2.314 4.356 3.118C3.684 3.922 3.348 5.074 3.348 6.574C3.348 8.086 3.684 9.25 4.356 10.066C5.028 10.87 5.988 11.272 7.236 11.272C7.884 11.272 8.49 11.17 9.054 10.966C9.63 10.75 10.206 10.408 10.782 9.94L11.538 11.632C11.034 12.112 10.398 12.49 9.63 12.766C8.874 13.03 8.064 13.162 7.2 13.162ZM17.1463 13.144C16.2223 13.144 15.4063 12.952 14.6983 12.568C14.0023 12.184 13.4623 11.638 13.0783 10.93C12.7063 10.21 12.5203 9.37 12.5203 8.41C12.5203 7.45 12.7063 6.616 13.0783 5.908C13.4623 5.188 14.0023 4.636 14.6983 4.252C15.4063 3.868 16.2223 3.676 17.1463 3.676C18.0583 3.676 18.8623 3.868 19.5583 4.252C20.2543 4.636 20.7883 5.188 21.1603 5.908C21.5443 6.616 21.7363 7.45 21.7363 8.41C21.7363 9.37 21.5443 10.21 21.1603 10.93C20.7883 11.638 20.2543 12.184 19.5583 12.568C18.8623 12.952 18.0583 13.144 17.1463 13.144ZM17.1283 11.38C17.8963 11.38 18.4783 11.134 18.8743 10.642C19.2823 10.138 19.4863 9.394 19.4863 8.41C19.4863 7.438 19.2823 6.7 18.8743 6.196C18.4663 5.68 17.8903 5.422 17.1463 5.422C16.3903 5.422 15.8083 5.68 15.4003 6.196C14.9923 6.7 14.7883 7.438 14.7883 8.41C14.7883 9.394 14.9863 10.138 15.3823 10.642C15.7903 11.134 16.3723 11.38 17.1283 11.38ZM28.5325 3.676C30.7045 3.676 31.7905 4.924 31.7905 7.42V13H29.5405V7.528C29.5405 6.808 29.4025 6.286 29.1265 5.962C28.8505 5.626 28.4245 5.458 27.8485 5.458C27.1645 5.458 26.6125 5.68 26.1925 6.124C25.7725 6.556 25.5625 7.132 25.5625 7.852V13H23.3305V6.484C23.3305 5.524 23.2825 4.666 23.1865 3.91H25.2925L25.4545 5.404C25.7665 4.852 26.1865 4.426 26.7145 4.126C27.2545 3.826 27.8605 3.676 28.5325 3.676ZM36.6921 5.602V9.67C36.6921 10.738 37.1901 11.272 38.1861 11.272C38.4621 11.272 38.7621 11.224 39.0861 11.128V12.91C38.6901 13.054 38.2101 13.126 37.6461 13.126C36.6141 13.126 35.8221 12.838 35.2701 12.262C34.7181 11.686 34.4421 10.858 34.4421 9.778V5.602H32.6961V3.91H34.4421V1.696L36.6921 0.94V3.91H39.1041V5.602H36.6921ZM48.9982 3.91V13H46.7842V11.542C46.5082 12.046 46.1122 12.442 45.5962 12.73C45.0802 13.006 44.4922 13.144 43.8322 13.144C43.0402 13.144 42.3382 12.952 41.7262 12.568C41.1142 12.184 40.6402 11.638 40.3042 10.93C39.9682 10.222 39.8002 9.4 39.8002 8.464C39.8002 7.528 39.9682 6.7 40.3042 5.98C40.6522 5.248 41.1322 4.684 41.7442 4.288C42.3562 3.88 43.0522 3.676 43.8322 3.676C44.4922 3.676 45.0802 3.82 45.5962 4.108C46.1122 4.384 46.5082 4.774 46.7842 5.278V3.91H48.9982ZM44.4442 11.38C45.1882 11.38 45.7642 11.122 46.1722 10.606C46.5802 10.09 46.7842 9.364 46.7842 8.428C46.7842 7.468 46.5802 6.73 46.1722 6.214C45.7642 5.698 45.1822 5.44 44.4262 5.44C43.6822 5.44 43.1002 5.71 42.6802 6.25C42.2722 6.778 42.0682 7.516 42.0682 8.464C42.0682 9.4 42.2722 10.12 42.6802 10.624C43.1002 11.128 43.6882 11.38 44.4442 11.38ZM55.2246 13.144C54.2766 13.144 53.4546 12.952 52.7586 12.568C52.0626 12.184 51.5286 11.644 51.1566 10.948C50.7846 10.24 50.5986 9.412 50.5986 8.464C50.5986 7.516 50.7906 6.682 51.1746 5.962C51.5706 5.242 52.1226 4.684 52.8306 4.288C53.5506 3.88 54.3786 3.676 55.3146 3.676C55.9626 3.676 56.5866 3.778 57.1866 3.982C57.7986 4.186 58.2846 4.468 58.6446 4.828L58.0146 6.412C57.6306 6.1 57.2226 5.866 56.7906 5.71C56.3586 5.542 55.9326 5.458 55.5126 5.458C54.6966 5.458 54.0606 5.716 53.6046 6.232C53.1486 6.736 52.9206 7.468 52.9206 8.428C52.9206 9.388 53.1426 10.12 53.5866 10.624C54.0426 11.128 54.6846 11.38 55.5126 11.38C55.9326 11.38 56.3586 11.296 56.7906 11.128C57.2226 10.96 57.6306 10.72 58.0146 10.408L58.6446 11.992C58.2606 12.352 57.7626 12.634 57.1506 12.838C56.5386 13.042 55.8966 13.144 55.2246 13.144ZM62.7239 5.602V9.67C62.7239 10.738 63.2219 11.272 64.2179 11.272C64.4939 11.272 64.7939 11.224 65.1179 11.128V12.91C64.7219 13.054 64.2419 13.126 63.6779 13.126C62.6459 13.126 61.8539 12.838 61.3019 12.262C60.7499 11.686 60.4739 10.858 60.4739 9.778V5.602H58.7279V3.91H60.4739V1.696L62.7239 0.94V3.91H65.1359V5.602H62.7239Z" fill="#111111"/>
</svg>
